# xmcd
#
# Track frame offsets:
#	150
#	15167
#	36916
#	48508
#	69156
#	85313
#	98893
#	116925
#	132571
#	150619
#	166806
#	182202
#	203229
#
# Disc length: 2914 seconds
# Revision: 2
# Processed by: cddbd v1.5.2PL0 Copyright (c) Steve Scherf et al.
# Submitted via: dBpowerAMP V12.0
#
DISCID=ab0b600d
DTITLE=EleniMandell,LosAngeles,CA - I Can See The Future
DYEAR=2012
DGENRE=Folk
TTITLE0=The future
TTITLE1=Magic summertime
TTITLE2=Now we're strangers
TTITLE3=I'm lucky
TTITLE4=Desert song
TTITLE5=Who you gonna dance with
TTITLE6=Never have to fall in love again (featuring Benji Hughes)
TTITLE7=Crooked man
TTITLE8=Bun in the oven
TTITLE9=So easy
TTITLE10=Looking to look for
TTITLE11=Don't say no
TTITLE12=A possibility
EXTD=
EXTT0=
EXTT1=
EXTT2=
EXTT3=
EXTT4=
EXTT5=
EXTT6=
EXTT7=
EXTT8=
EXTT9=
EXTT10=
EXTT11=
EXTT12=
PLAYORDER=
